<?xml version="1.0" encoding="utf-8"?>
<!-- Generator: Adobe Illustrator 16.0.0, SVG Export Plug-In . SVG Version: 6.00 Build 0)  -->
<!DOCTYPE svg PUBLIC "-//W3C//DTD SVG 1.1//EN" "http://www.w3.org/Graphics/SVG/1.1/DTD/svg11.dtd">
<svg version="1.1" id="Calque_1" xmlns="http://www.w3.org/2000/svg" xmlns:xlink="http://www.w3.org/1999/xlink" x="0px" y="0px"
	 width="60px" height="40px" viewBox="0 0 60 40" enable-background="new 0 0 60 40" xml:space="preserve">
<path fill="#AEE1F4" d="M28.056,3.882c-6.994,0.81-6.074,4.626-5.977,5.591c-2.024-0.674-3.374,0.771-4.434,0.482
	c-1.832-2.12-10.604-0.481-7.519,6.266c0,0-4.627-2.892-7.038-0.771s0.193,4.531,0.964,5.11c-3.76,0.771-5.398,4.626-0.579,6.843
	c-0.289,8.58,5.013,8.676,7.712,4.628c2.892,7.037,8.869,4.337,10.797,0.578c2.699,4.667,5.495,2.7,6.844,0.386
	c7.808-0.289,7.423-3.855,6.459-6.072c4.145,5.108,4.53,5.067,2.987,7.711c0.097,1.157,3.953-3.373,6.748-3.855
	c2.796-0.482,6.941,0.578,9.062,2.603c2.121,2.024,8.387-2.023,3.76-7.036c-2.603-2.893-0.674-3.664,0-4.531
	c0.675-0.868-0.289-3.856-3.47-4.145c0.674-1.446-0.482-4.339-3.856-6.749c-3.373-2.41-7.326-0.192-9.736,1.35
	c0.096-5.495-2.603-6.748-5.591-1.446C35.189,4.942,33.357,3.593,28.056,3.882z"/>
<path fill="#FFFFFF" d="M33.562,14.375c-2.024-8.29-11.278-6.169-8.194,0.771c-0.192,1.831-1.927,0.771-2.505,0
	c-0.579-0.771-1.833-0.289-1.735,1.542c-1.543-0.096-1.927-1.734-2.794-1.831c-0.868-0.097-12.822,1.445-2.7,8
	c0,1.929-1.254,1.929-2.892,1.639c-1.638-0.289-5.592,0.482-5.351,3.808c0.481,2.362,3.181,2.652,5.014,1.735
	c1.735-0.049,3.807,1.833,5.976,0.482c2.169-1.35-1.012-4.097,1.205-5.735c2.219-0.435,2.121,1.109,1.929,2.939
	c1.302,0.724,0.722,0.626,2.12,0.53c1.398-0.096,0.338,1.447,2.122,1.639c1.782,0.192,1.782-0.915,3.951-1.783
	c1.591-1.687-0.145-4.434,3.471-4.771s2.796,3.181,5.64,3.471c2.844,0.288,4.097-0.724,3.614-2.459
	c-0.48-1.735,0.628-2.36,2.652-0.964c2.459,0.819,5.687-1.203,4.53,1.735c-1.06,1.205-0.965,2.265,1.349,3.856
	c1.495,0.24,3.664-1.688,3.567,0.723c0.387,1.831,1.544,2.567,2.747,1.308c0.627-0.344,0.481-1.839-0.819-2.658
	c-1.302-0.818-2.602-0.915-2.554-1.927c0.048-1.013,1.881-1.735,1.783-2.747c-0.098-1.013-1.062-2.169-1.977-2.024
	c-0.916,0.145-1.541,1.639-2.361,1.445c-0.82-0.192-1.493-1.592-0.867-2.266c0.625-0.675,2.554-2.216,1.927-3.711
	c-0.626-1.495-2.746-2.457-4.433-2.698c-1.688-0.242-4.243,0.722-5.303,1.493s-2.217,0.242-2.65-1.06s-0.531-1.494-1.254-1.446
	s-0.723,1.977-1.109,2.314c-0.384,0.336-0.723-0.531-1.686-0.627C35.008,15.002,33.562,14.375,33.562,14.375z"/>
</svg>
